<?xml version="1.0" encoding="iso-8859-1"?>
<!-- Generator: Adobe Illustrator 9.0, SVG Export Plug-In  -->
<!DOCTYPE svg [
	<!ENTITY st0 "fill:#FFFFFF;stroke:none;">
	<!ENTITY st1 "fill:#1F60A9;stroke:none;">
	<!ENTITY st2 "fill-rule:nonzero;clip-rule:nonzero;stroke:#000000;stroke-miterlimit:4;">
]>
<svg  width="25.5pt" height="25.5pt" viewBox="0 0 25.5 25.5" xml:space="preserve" xmlns="http://www.w3.org/2000/svg">
	<g id="Layer_x0020_1" style="&st2;">
		<path style="&st1;" d="M25.5,12.7c0,7-5.7,12.7-12.7,12.7C5.7,25.5,0,19.8,0,12.7S5.7,0,12.7,0c7,0,12.7,5.7,12.7,12.7z"/>
		<g>
			<path style="&st0;" d="M14.1,19.2c0,0.2,0,0.3-0.3,0.3h-1.8c-0.2,0-0.3-0.1-0.3-0.3v-7.1h-1.4c-0.2,0-0.3-0.1-0.3-0.3v-1.2c0-0.2,0-0.3,0.3-0.3h3.5c0.2,0,0.3,0.1,0.3,0.3v8.5z M13,9.2c-0.8,0-1.5-0.7-1.5-1.5s0.7-1.5,1.5-1.5c0.8,0,1.5,0.7,1.5,1.5
				S13.8,9.2,13,9.2z"/>
		</g>
	</g>
</svg>
